<?xml version="1.0" encoding="utf-8"?>
<!-- Generator: Adobe Illustrator 26.5.0, SVG Export Plug-In . SVG Version: 6.00 Build 0)  -->
<svg version="1.1" id="official" xmlns="http://www.w3.org/2000/svg" xmlns:xlink="http://www.w3.org/1999/xlink" x="0px" y="0px"
	 viewBox="0 0 556 75.6" style="enable-background:new 0 0 556 75.6;" xml:space="preserve">
<style type="text/css">
	.st0{fill:#FFB95B;}
	.st1{fill:#488663;}
</style>
<g>
	<g transform="translate(201.262688, 396.305126)">
		<g>
			<path class="st0" d="M-201.3-322.1h30.6c12.4,0,28-3.8,28-19.9c0-10.5-6.7-15.6-13.7-17.7c6.4-2.1,10.9-7.3,10.9-15.5
				c0-12.2-9.4-18-24.7-18h-31.1V-322.1z M-186.1-364.6v-16.1h14.4c6.8,0,10.8,2.5,10.8,8.1c0,5.5-4.1,8.1-10,8.1L-186.1-364.6z
				 M-186.1-334.6v-18.2h16c6.1,0,12,1.6,12,9.1c0,7.7-6,9-12.8,9h-15.2V-334.6z"/>
		</g>
	</g>
</g>
<g>
	<g transform="translate(251.212057, 396.305126)">
		<g>
			<path class="st0" d="M-160.8-320.7c7.3,0,13.3-1.1,17.9-3v-11.1c-4.2,1.7-9.1,2.8-14.7,2.8c-8,0-15.5-2.8-17.2-10h34.3
				c3.2-14.4-3.2-30.4-23.5-30.4c-11,0-25.1,7.4-25.1,25.8C-189-329.5-176.2-320.7-160.8-320.7z M-174.9-351.1
				c0.2-6.7,5.5-10.5,11.5-10.5c8.7,0,10.7,7.1,10.1,10.5H-174.9z"/>
		</g>
	</g>
</g>
<g>
	<g transform="translate(290.653384, 396.305126)">
		<g>
			<path class="st0" d="M-151.9-320.7c4.9,0,9.3-0.8,13.1-2.1v-11.4c-2.8,1-5.6,1.5-8.8,1.5c-5.3,0-7.7-2.1-7.7-7.2V-359h15.3v-11.9
				h-15.3v-17.5l-14.1,3.3v14.2h-8.2v11.9h8.2v21.8C-169.5-325-161.3-320.7-151.9-320.7z"/>
		</g>
	</g>
</g>
<g>
	<g transform="translate(320.195822, 396.305126)">
		<g>
			<path class="st0" d="M-141-320.7c4.9,0,9.3-0.8,13.1-2.1v-11.4c-2.8,1-5.6,1.5-8.8,1.5c-5.3,0-7.7-2.1-7.7-7.2V-359h15.3v-11.9
				h-15.3v-17.5l-14.1,3.3v14.2h-8.2v11.9h8.2v21.8C-158.6-325-150.5-320.7-141-320.7z"/>
		</g>
	</g>
</g>
<g>
	<g transform="translate(349.738263, 396.305126)">
		<g>
			<path class="st0" d="M-126.9-320.7c7.3,0,13.3-1.1,17.9-3v-11.1c-4.2,1.7-9.1,2.8-14.7,2.8c-8,0-15.5-2.8-17.2-10h34.3
				c3.2-14.4-3.2-30.4-23.5-30.4c-11,0-25.1,7.4-25.1,25.8C-155.2-329.5-142.4-320.7-126.9-320.7z M-141.1-351.1
				c0.2-6.7,5.5-10.5,11.5-10.5c8.7,0,10.7,7.1,10.1,10.5H-141.1z"/>
		</g>
	</g>
</g>
<g>
	<g transform="translate(389.17959, 396.305126)">
		<g>
			<path class="st0" d="M-140.3-322.1h14.1v-28.6c3-5.8,10.4-8.7,18.2-7.3v-13.9c-9.2-0.9-16.3,2.9-19.8,8.3v-7.3h-12.5V-322.1z"/>
		</g>
	</g>
</g>
<g>
	<g transform="translate(416.666095, 396.305126)">
		<g>
			<path class="st1" d="M-132.1-322.1h14.1v-31.8c2.1-2.9,5.9-6.1,10.9-6.1c5.4,0,9.4,3,9.4,9.5v28.3h14.1v-30.2
				c0-11.3-7-20-19.8-20c-6.1,0-11.1,2.5-14.6,6v-26.8h-14.1V-322.1L-132.1-322.1z"/>
		</g>
	</g>
</g>
<g>
	<g transform="translate(459.305501, 396.305126)">
		<g>
			<path class="st1" d="M-94.4-320.7c7.3,0,13.3-1.1,17.9-3v-11.1c-4.2,1.7-9.1,2.8-14.7,2.8c-8,0-15.5-2.8-17.2-10h34.3
				c3.2-14.4-3.2-30.4-23.5-30.4c-11,0-25.1,7.4-25.1,25.8C-122.6-329.5-109.8-320.7-94.4-320.7z M-108.5-351.1
				c0.2-6.7,5.5-10.5,11.5-10.5c8.7,0,10.7,7.1,10.1,10.5H-108.5z"/>
		</g>
	</g>
</g>
<g>
	<g transform="translate(498.746811, 396.305126)">
		<g>
			<path class="st1" d="M-93-320.7c7.3,0,13-2.3,17.7-6.1l0.2,0.3c2,3.6,5.8,5.3,10.5,5.3c2.8,0,5.7-0.6,7.8-1.4v-9.2
				c-0.8,0.2-1.7,0.4-2.5,0.4c-1.8,0-3.5-0.7-3.5-3.3v-15.5c0-16-9.3-22-24.1-22c-7.4,0-14.8,1.9-18.8,3.2v12.3
				c4.6-1.9,10.5-3.8,17.3-3.8c7.6,0,11.5,3.5,11.5,8.2v1.7c-3.6-0.8-7.7-1.3-11.6-1.3c-9.9,0-21.4,3.9-21.4,16.3
				C-110-326-102.1-320.7-93-320.7z M-88-330.7c-4.3,0-7.5-2.3-7.5-6c0-5,5.1-6.6,10.2-6.6c2.8,0,6.1,0.5,8.3,1v7.4
				C-80.2-332.1-84-330.7-88-330.7z"/>
		</g>
	</g>
</g>
<g>
	<g transform="translate(539.025793, 396.305126)">
		<g>
			<path class="st1" d="M-92.2-322.1h14.1v-74.2h-14.1V-322.1z"/>
		</g>
	</g>
</g>
<g>
	<g transform="translate(556.537296, 396.305126)">
		<g>
			<path class="st1" d="M-66.3-320.7c4.9,0,9.3-0.8,13.1-2.1v-11.4c-2.8,1-5.6,1.5-8.8,1.5c-5.3,0-7.7-2.1-7.7-7.2V-359h15.3v-11.9
				h-15.3v-17.5l-14.1,3.3v14.2H-92v11.9h8.2v21.8C-83.8-325-75.7-320.7-66.3-320.7z"/>
		</g>
	</g>
</g>
<g>
	<g transform="translate(586.079734, 396.305126)">
		<g>
			<path class="st1" d="M-78.6-322.1h14.1v-31.8c2.1-2.9,5.9-6.1,10.9-6.1c5.4,0,9.4,3,9.4,9.5v28.3h14.1v-30.2c0-11.3-7-20-19.8-20
				c-6.1,0-11.1,2.5-14.6,6v-26.8h-14.1L-78.6-322.1L-78.6-322.1z"/>
		</g>
	</g>
</g>
</svg>
